<?xml version="1.0" encoding="utf-8"?>
<!-- Generator: Adobe Illustrator 24.0.0, SVG Export Plug-In . SVG Version: 6.00 Build 0)  -->
<svg version="1.1"
	 id="svg1" inkscape:version="0.44.1" sodipodi:docbase="C:\Documents and Settings\Brittany Boyer\My Documents\Pictures\Work\Wikipedia\Clean up\Crop" sodipodi:docname="Heart_left-highlight_jon_01.svg" sodipodi:version="0.32" xmlns:cc="http://web.resource.org/cc/" xmlns:dc="http://purl.org/dc/elements/1.1/" xmlns:inkscape="http://www.inkscape.org/namespaces/inkscape" xmlns:rdf="http://www.w3.org/1999/02/22-rdf-syntax-ns#" xmlns:sodipodi="http://sodipodi.sourceforge.net/DTD/sodipodi-0.dtd" xmlns:svg="http://www.w3.org/2000/svg"
	 xmlns="http://www.w3.org/2000/svg" xmlns:xlink="http://www.w3.org/1999/xlink" x="0px" y="0px" viewBox="0 0 490.8 457"
	 style="enable-background:new 0 0 490.8 457;" xml:space="preserve">
<style type="text/css">
	.st0{fill:#FFFFFF;stroke:#000000;stroke-width:18.7;}
	.st1{fill:#E6E6E6;fill-opacity:0.6456;}
</style>
<sodipodi:namedview  bordercolor="#666666" borderopacity="1.0" height="457.01001px" id="base" inkscape:current-layer="layer1" inkscape:cx="-108.71289" inkscape:cy="287.02139" inkscape:document-units="px" inkscape:guide-bbox="true" inkscape:pageopacity="0.0" inkscape:pageshadow="2" inkscape:window-height="964" inkscape:window-width="1280" inkscape:window-x="-4" inkscape:window-y="-4" inkscape:zoom="0.49497475" pagecolor="#ffffff" showguides="true" width="490.82px">
	</sodipodi:namedview>
<g id="layer1" transform="translate(-134.0657,-225.7959)" inkscape:groupmode="layer" inkscape:label="Layer 1">
	<path id="path7" sodipodi:nodetypes="ccccccc" class="st0" d="M272.7,238.7c-66.2,0-120,53.8-120,120
		c0,134.8,135.9,170.1,228.6,303.3c87.6-132.4,228.6-172.9,228.6-303.3c0-66.2-53.8-120-120-120c-48,0-89.4,28.4-108.6,69.2
		C362.1,267.1,320.7,238.7,272.7,238.7z"/>
	<path id="path220" sodipodi:nodetypes="ccccccc" class="st1" d="M274.3,257.2c-58,0-105,47-105,105c0,117.9,118.9,148.8,200,265.4
		c6.6-9.9-140-145.5-140-245.4c0-58,47-105,105-105c0.5,0,1,0.1,1.5,0.1C318.5,264.6,297.3,257.2,274.3,257.2z"/>
</g>
</svg>
